<?xml version="1.0" encoding="utf-8"?>
<!-- Generator: Adobe Illustrator 17.0.0, SVG Export Plug-In . SVG Version: 6.00 Build 0)  -->
<!DOCTYPE svg PUBLIC "-//W3C//DTD SVG 1.1//EN" "http://www.w3.org/Graphics/SVG/1.1/DTD/svg11.dtd">
<svg version="1.1" id="Capa_1" xmlns="http://www.w3.org/2000/svg" xmlns:xlink="http://www.w3.org/1999/xlink" x="0px" y="0px"
	 width="64px" height="64px" viewBox="0 0 64 64" enable-background="new 0 0 64 64" xml:space="preserve">
<g>
	<path d="M45.584,13.364H18.4c-0.254,0-0.527,0.197-0.607,0.438l-1.633,4.899c-0.081,0.242,0.06,0.439,0.316,0.439h31.034
		c0.256,0,0.397-0.197,0.316-0.439l-1.633-4.899C46.111,13.561,45.839,13.364,45.584,13.364z"/>
	<path d="M9.444,19.525l-5.575,8.469c-0.141,0.214-0.049,0.362,0.205,0.334l8.4-0.973c0.254-0.029,0.532-0.246,0.622-0.485
		l2.754-7.298c0.09-0.239-0.043-0.432-0.298-0.432h-5.391C9.905,19.141,9.585,19.313,9.444,19.525z"/>
	<path d="M58.139,30.289l-4.934-8.669c-0.126-0.221-0.42-0.48-0.655-0.578l-4.152-1.726c-0.236-0.098-0.358,0.019-0.274,0.26
		l2.544,7.291c0.084,0.24,0.341,0.519,0.574,0.624l6.704,3.01C58.178,30.605,58.265,30.511,58.139,30.289z"/>
	<path d="M12.847,27.757l-1.446,7.64c-0.047,0.251,0.121,0.453,0.376,0.453h40.121c0.255,0,0.425-0.203,0.38-0.454l-1.376-7.638
		c-0.045-0.251-0.289-0.455-0.544-0.455H13.394C13.139,27.303,12.894,27.506,12.847,27.757z"/>
</g>
<path d="M14.165,37.929h35.578c0.255,0,0.441,0.205,0.415,0.459l-1.293,12.788c-0.026,0.254-0.254,0.46-0.509,0.46H15.705
	c-0.255,0-0.485-0.206-0.514-0.459l-1.437-12.789C13.726,38.134,13.91,37.929,14.165,37.929z"/>
</svg>
