<?xml version="1.0" encoding="iso-8859-1"?>
<!-- Generator: Adobe Illustrator 18.0.0, SVG Export Plug-In . SVG Version: 6.00 Build 0)  -->
<!DOCTYPE svg PUBLIC "-//W3C//DTD SVG 1.1//EN" "http://www.w3.org/Graphics/SVG/1.1/DTD/svg11.dtd">
<svg version="1.1" id="Capa_1" xmlns="http://www.w3.org/2000/svg" xmlns:xlink="http://www.w3.org/1999/xlink" x="0px" y="0px"
	 viewBox="0 0 55.352 42.04" style="enable-background:new 0 0 55.352 42.04;" xml:space="preserve">
<path d="M33.659,2.707L33.661,0L21.689,0.014l0.002,2.693H33.659z M54.386,23.897l-0.154,0.052l-0.208,0.07
	c-0.175,0.058-0.347,0.117-0.522,0.171c-0.301,0.099-0.612,0.194-0.922,0.288l-0.224,0.07l-0.534,0.164
	c-0.309,0.093-0.619,0.179-0.927,0.265l-0.301,0.086c-0.161,0.047-0.325,0.093-0.488,0.139c-0.209,0.055-0.416,0.108-0.623,0.161
	l-0.301,0.078l-0.22,0.059c-0.2,0.052-0.401,0.104-0.602,0.154c-0.241,0.06-0.487,0.117-0.734,0.175l-0.189,0.044l-0.195,0.046
	c-0.217,0.052-0.432,0.104-0.649,0.15c-0.219,0.05-0.44,0.096-0.664,0.144l-0.262,0.056l-0.312,0.066
	c-0.185,0.037-0.372,0.078-0.557,0.116c-0.224,0.043-0.447,0.085-0.67,0.127l-0.267,0.05l-0.257,0.048
	c-0.209,0.04-0.417,0.08-0.625,0.116c-0.244,0.043-0.494,0.083-0.744,0.125l-0.208,0.033l-0.281,0.047
	c-0.201,0.035-0.402,0.067-0.604,0.099c-0.264,0.041-0.528,0.079-0.791,0.116l-0.184,0.025l-0.324,0.047
	c-0.187,0.029-0.377,0.054-0.567,0.08c-0.232,0.031-0.466,0.059-0.701,0.087l-0.287,0.032l-0.23,0.029
	c-0.221,0.028-0.442,0.055-0.663,0.079c-0.272,0.028-0.537,0.055-0.803,0.08L36.4,27.689l-0.297,0.03
	c-0.205,0.02-0.411,0.041-0.618,0.06c-0.205,0.018-0.407,0.032-0.61,0.047l-0.347,0.025l-0.268,0.021
	c-0.236,0.018-0.472,0.037-0.708,0.053c-0.182,0.013-0.368,0.02-0.555,0.032l-0.321,0.018l-0.382,0.02
	c-0.132,0.009-0.266,0.015-0.396,0.024v2.951c-0.004,1.433-1.169,2.601-2.601,2.603h-3.24c-1.434-0.002-2.602-1.17-2.603-2.602
	V28.02c-0.137-0.008-0.276-0.015-0.413-0.024l-0.296-0.018l-0.267-0.012c-0.23-0.012-0.458-0.023-0.685-0.039
	c-0.192-0.014-0.385-0.027-0.576-0.043l-0.326-0.025l-0.337-0.026c-0.23-0.016-0.461-0.034-0.691-0.053
	c-0.216-0.019-0.428-0.042-0.64-0.062l-0.228-0.025l-0.29-0.027c-0.251-0.024-0.501-0.048-0.75-0.075
	c-0.19-0.02-0.38-0.045-0.571-0.066l-0.286-0.034l-0.334-0.04c-0.233-0.03-0.467-0.056-0.697-0.087
	c-0.2-0.026-0.406-0.056-0.61-0.085l-0.241-0.036l-0.338-0.048c-0.224-0.03-0.448-0.062-0.669-0.097
	c-0.195-0.03-0.387-0.062-0.58-0.095l-0.278-0.045l-0.22-0.037c-0.255-0.041-0.512-0.082-0.765-0.128
	c-0.224-0.041-0.442-0.082-0.665-0.124l-0.191-0.037l-0.228-0.042c-0.245-0.045-0.489-0.09-0.731-0.139
	c-0.218-0.044-0.432-0.089-0.646-0.136l-0.209-0.045l-0.299-0.064c-0.213-0.044-0.428-0.088-0.64-0.137
	c-0.225-0.048-0.45-0.103-0.676-0.156L7.91,25.872l-0.236-0.056c-0.228-0.053-0.454-0.105-0.681-0.161
	c-0.167-0.042-0.331-0.084-0.493-0.127l-0.339-0.089l-0.202-0.052c-0.237-0.06-0.473-0.121-0.707-0.184
	c-0.17-0.048-0.335-0.095-0.503-0.142L4.44,24.975l-0.189-0.054c-0.24-0.068-0.479-0.136-0.715-0.208
	c-0.222-0.063-0.441-0.134-0.662-0.201l-0.125-0.04l-0.191-0.059c-0.236-0.074-0.472-0.146-0.704-0.221
	c-0.256-0.081-0.508-0.167-0.76-0.253c-0.297-0.099-0.601-0.199-0.9-0.303C0.126,23.613,0.064,23.591,0,23.568v18.196
	c0,0.148,0.126,0.275,0.278,0.275h54.798c0.146,0,0.274-0.127,0.274-0.276V23.567l-0.185,0.066
	C54.905,23.725,54.646,23.811,54.386,23.897z M55.074,5.035H0.277C0.128,5.035,0,5.162,0,5.312v15.782
	c0.308,0.113,0.613,0.225,0.925,0.335c0.1,0.035,0.2,0.068,0.3,0.102l0.206,0.068l0.286,0.098c0.268,0.091,0.536,0.183,0.808,0.27
	l0.35,0.109l0.205,0.063c0.36,0.113,0.715,0.226,1.075,0.332c0.12,0.037,0.246,0.071,0.368,0.107l0.258,0.073l0.219,0.062
	c0.27,0.078,0.541,0.155,0.814,0.23c0.155,0.044,0.313,0.084,0.47,0.125l0.245,0.062l0.234,0.062c0.246,0.063,0.49,0.129,0.74,0.19
	c0.146,0.037,0.298,0.072,0.451,0.109l0.348,0.081l0.307,0.072c0.202,0.049,0.403,0.097,0.606,0.143
	c0.204,0.047,0.41,0.089,0.614,0.132l0.274,0.057l0.28,0.059c0.19,0.042,0.381,0.083,0.575,0.122c0.234,0.047,0.47,0.09,0.705,0.135
	l0.271,0.051l0.226,0.042c0.188,0.037,0.375,0.073,0.564,0.106c0.252,0.044,0.506,0.085,0.761,0.128l0.307,0.05l0.292,0.048
	l0.437,0.07c0.286,0.047,0.577,0.087,0.867,0.127l0.299,0.042l0.226,0.034c0.138,0.019,0.278,0.039,0.417,0.057
	c0.366,0.05,0.729,0.092,1.094,0.135l0.156,0.018l0.26,0.032c0.111,0.015,0.222,0.026,0.333,0.04
	c0.41,0.046,0.825,0.083,1.237,0.123l0.277,0.027l0.352,0.033c0.306,0.028,0.614,0.051,0.923,0.074l0.305,0.021l0.297,0.023
	c0.118,0.011,0.239,0.02,0.357,0.027c0.259,0.017,0.519,0.03,0.782,0.043l0.312,0.015l0.239,0.017
	c0.067,0.001,0.132,0.007,0.201,0.01l0.001-2.272c0-1.433,1.168-2.599,2.6-2.603h3.241c1.431,0.003,2.597,1.169,2.602,2.6v2.275
	c0.006,0,0.011,0,0.016,0l0.325-0.019l0.354-0.019c0.281-0.015,0.559-0.029,0.837-0.048c0.108-0.007,0.211-0.015,0.312-0.024
	l0.242-0.018c0.445-0.03,0.891-0.063,1.334-0.103l0.241-0.021l0.266-0.028c0.464-0.043,0.913-0.084,1.355-0.133l0.28-0.035
	l0.205-0.024c0.457-0.052,0.91-0.105,1.358-0.164l0.258-0.037l0.258-0.037l0.18-0.025c0.376-0.052,0.75-0.106,1.122-0.163
	c0.11-0.018,0.213-0.035,0.318-0.052l0.27-0.047l0.303-0.048c0.299-0.049,0.601-0.098,0.901-0.151
	c0.146-0.026,0.288-0.053,0.429-0.08l0.224-0.044l0.175-0.031c0.315-0.059,0.63-0.117,0.941-0.18
	c0.136-0.026,0.265-0.055,0.398-0.083l0.317-0.067l0.183-0.039c0.284-0.059,0.566-0.119,0.846-0.182
	c0.197-0.044,0.393-0.091,0.589-0.138l0.172-0.042l0.175-0.039c0.259-0.062,0.522-0.121,0.779-0.186
	c0.199-0.051,0.394-0.104,0.591-0.154l0.229-0.06l0.285-0.073c0.196-0.052,0.39-0.103,0.582-0.154
	c0.253-0.069,0.504-0.141,0.754-0.213l0.108-0.031l0.208-0.06c0.197-0.055,0.396-0.111,0.593-0.169
	c0.204-0.062,0.407-0.124,0.607-0.187l0.282-0.088l0.221-0.069c0.174-0.053,0.348-0.106,0.519-0.162
	c0.235-0.075,0.465-0.154,0.697-0.231l0.21-0.073l0.239-0.079c0.153-0.052,0.307-0.104,0.458-0.155
	c0.25-0.087,0.498-0.179,0.746-0.27l0.161-0.059l0.001-15.783C55.352,5.162,55.225,5.035,55.074,5.035z M29.296,31.246
	c0.145,0,0.273-0.129,0.273-0.276v-2.874c-0.665,0.016-1.289,0.024-1.893,0.024c-0.591,0-1.208-0.009-1.894-0.025v2.876
	c0,0.149,0.125,0.275,0.276,0.275H29.296z"/>
<g>
</g>
<g>
</g>
<g>
</g>
<g>
</g>
<g>
</g>
<g>
</g>
<g>
</g>
<g>
</g>
<g>
</g>
<g>
</g>
<g>
</g>
<g>
</g>
<g>
</g>
<g>
</g>
<g>
</g>
</svg>
